<?xml version="1.0" encoding="utf-8" ?>
<svg xmlns="http://www.w3.org/2000/svg" xmlns:xlink="http://www.w3.org/1999/xlink" width="559" height="447">
	<path fill="#0C5163" d="M338.587 182.356C341.926 187.239 346.446 195.265 348.92 200.598C346.934 200.788 344.933 200.774 342.939 200.798L342.829 223.213C342.832 228.498 343.072 233.912 342.748 239.183Q342.708 239.757 342.639 240.328Q342.57 240.899 342.473 241.466Q342.376 242.033 342.251 242.595Q342.126 243.157 341.973 243.711Q341.82 244.266 341.64 244.812Q341.46 245.359 341.253 245.896Q341.047 246.433 340.813 246.959Q340.58 247.484 340.321 247.998Q340.062 248.512 339.778 249.012Q339.494 249.513 339.185 249.998Q338.877 250.484 338.545 250.954Q338.212 251.423 337.857 251.876Q337.502 252.329 337.125 252.763Q336.748 253.198 336.35 253.613Q335.952 254.029 335.534 254.424Q335.115 254.819 334.678 255.193C331.859 257.629 328.025 259.729 324.33 260.385C319.293 261.279 313.847 260.975 308.737 260.971L286.393 260.939L256.337 260.949C250.359 260.955 244.274 261.189 238.312 260.776Q237.753 260.738 237.197 260.672Q236.64 260.606 236.088 260.513Q235.535 260.42 234.988 260.301Q234.441 260.181 233.9 260.034Q233.359 259.888 232.826 259.715Q232.293 259.542 231.769 259.343Q231.246 259.144 230.732 258.92Q230.219 258.696 229.717 258.446Q229.215 258.197 228.726 257.924Q228.237 257.65 227.762 257.353Q227.287 257.056 226.827 256.736Q226.367 256.416 225.924 256.074Q225.48 255.732 225.054 255.368Q224.628 255.005 224.22 254.621Q223.812 254.237 223.423 253.834Q223.034 253.43 222.666 253.008C220.378 250.333 218.442 247.145 217.563 243.714C215.72 236.52 216.523 227.291 216.528 219.836C216.532 213.493 216.29 207.003 216.774 200.679Q213.517 200.727 210.259 200.687C213.827 194.766 216.827 187.861 220.989 182.382C224.257 187.057 229.257 195.532 231.352 200.769L225.184 200.818L225.147 224.475C225.131 229.07 224.828 233.893 225.449 238.454C225.765 240.78 226.419 243.029 227.627 245.054C230.059 249.133 233.695 251.029 238.151 252.199L320.293 252.221C323.924 252.063 327.148 250.292 329.62 247.71C331.613 245.628 332.969 243.223 333.622 240.412C334.744 235.579 334.143 229.862 334.143 224.891Q334.224 212.824 334.018 200.759C332.032 200.753 330.037 200.801 328.067 200.525C329.896 196.57 336.01 185.603 338.587 182.356Z"/>
	<path fill="#0C5163" d="M330.614 97.0576L331.149 97.3012C332.156 100.246 332.546 103.622 333.201 106.677C334.48 112.638 335.911 118.589 336.976 124.591C337.649 128.381 338.038 132.51 339.296 136.147C335.519 133.507 331.322 129.832 328.355 126.303C325.3 133.033 322.472 139.905 319.549 146.697C318.086 150.094 316.736 153.588 314.972 156.841C311.802 162.69 303.854 173.078 299.008 177.638C280.351 195.19 261.668 205.238 235.495 204.432Q232.515 204.24 229.542 203.955C234.319 202.603 239.076 201.081 243.662 199.168Q248.553 197.175 253.214 194.69Q257.875 192.205 262.257 189.256C264.468 187.736 266.488 185.863 268.569 184.166C280.682 174.285 291.419 162.833 299.693 149.499C304.97 140.994 309.127 132.064 312.924 122.816C308.212 122.786 303.521 122.843 298.82 123.182C309.719 114.957 319.425 104.909 330.614 97.0576Z"/>
	<path fill="#77D7EC" d="M321.962 146.716C322.004 146.752 322.051 146.781 322.086 146.823C322.09 146.828 322.446 147.333 322.452 147.352C322.869 148.752 322.653 166.434 322.661 169.105L322.707 246.329C318.127 246.992 313.389 246.747 308.781 246.626L308.521 246.351C307.899 244.552 307.935 239.589 307.91 237.487C307.871 234.162 308.332 230.833 308.367 227.502C308.44 220.563 307.792 171.884 308.874 169.618C308.926 169.51 308.986 169.406 309.04 169.299C310.409 166.593 312.556 164.315 314.22 161.782C317.407 156.93 319.746 152.074 321.962 146.716Z"/>
	<path fill="#77D7EC" d="M304.206 175.383L304.884 175.649C305.297 177.585 304.909 179.998 304.911 181.997L304.899 201.617C304.891 209.529 304.793 217.454 304.918 225.364C304.985 229.596 305.524 233.819 305.5 238.047C305.484 241.047 305.074 244.082 304.77 247.065C300.522 246.773 296.244 246.787 291.988 246.719C291.178 246.632 291.153 246.666 290.586 246.093C290.077 244.152 290.445 233.075 290.445 230.022C290.442 216.143 289.994 202.126 290.581 188.263C292.119 186.517 293.983 184.985 295.669 183.378C298.488 180.691 301.249 177.919 304.206 175.383Z"/>
	<path fill="#77D7EC" d="M286.249 191.218C286.304 191.267 286.367 191.309 286.414 191.365C287.135 192.213 286.92 242.02 286.872 247.007Q279.988 246.851 273.102 246.833C272.693 246.33 272.606 246.005 272.545 245.358C272.132 241.002 272.542 236.367 272.471 231.975C272.358 225.002 272.316 218.097 272.398 211.124C272.437 207.852 272.27 204.462 272.635 201.214C272.685 200.775 272.752 199.894 272.975 199.542C273.187 199.208 284.162 192.877 286.249 191.218Z"/>
	<path fill="#77D7EC" d="M268.113 201.393C268.386 201.344 268.679 201.412 268.954 201.442C269.07 201.584 269.163 201.679 269.244 201.839C269.99 203.319 269.82 238.335 269.613 242.617C269.55 243.93 269.42 245.191 269.064 246.459C267.82 247.34 258.807 246.772 256.777 246.746C256.426 246.75 256.105 246.64 255.766 246.557C254.703 244.743 255.361 210.073 255.455 205.301C259.597 204.314 264.144 202.926 268.113 201.393Z"/>
	<path fill="#77D7EC" d="M250.205 206.17C250.834 206.029 250.806 206 251.358 206.324C252.099 208.651 251.797 241.607 251.497 246.92Q245.565 246.896 239.634 246.751C238.893 246.765 238.378 246.774 237.7 246.456C236.703 244.765 237.068 210.846 237.384 207.055C241.694 207.068 245.931 206.686 250.205 206.17Z"/>
	<path fill="#0C5163" d="M249.093 295.841C249.934 291.792 253.492 272.091 254.79 270.014C255.409 269.655 255.885 269.523 256.607 269.497C257.519 269.464 258.247 269.575 258.931 270.195C259.249 271.854 258.264 274.597 257.945 276.305C256.031 285.233 254.233 294.189 252.241 303.1Q249.319 303.088 246.398 303.019C245.124 296.832 243.03 290.846 241.783 284.644Q239.144 293.873 236.762 303.171Q233.631 303.054 230.497 303.048C229.444 299.448 223.213 271.692 223.775 269.634C225.349 269.59 226.929 269.644 228.503 269.673C229.596 273.037 230.176 276.688 230.929 280.144L234.304 295.084C235.409 291.104 237.802 278.272 239.887 275.827C241.026 275.299 242.341 275.357 243.578 275.292C244.658 278.135 245.28 281.13 246.08 284.06C247.144 287.96 248.401 291.855 249.093 295.841Z"/>
	<path fill="#0C5163" d="M206.556 289.45C206.699 287.27 206.459 285.026 206.377 282.842C206.298 280.751 206.015 271.196 207.163 269.96C208.371 269.43 209.675 269.509 210.973 269.477C211.668 274.145 212.602 299.927 210.859 302.93C210.043 303.387 209.019 303.213 208.11 303.183C205.638 301.661 198.716 283.703 197.455 279.994C196.739 287.688 197.289 295.479 197.114 303.191C195.51 303.143 193.9 303.014 192.297 302.923C192.119 298.218 192.424 293.469 192.378 288.755C192.321 283.034 191.858 277.091 192.261 271.396C192.308 270.737 192.498 270.202 192.82 269.631C194.051 269.555 195.901 269.274 197.061 269.69C199.152 270.439 205.19 286.384 206.556 289.45Z"/>
	<path fill="#0C5163" d="M288.758 313.283C291.14 313.227 294.923 312.649 296.722 314.496C297.766 315.567 298.274 317.038 298.557 318.477C299.086 321.159 298.777 324.375 298.763 327.111Q298.688 334.818 298.712 342.525C296.925 342.427 295.119 342.506 293.329 342.536C293.366 339.604 294.083 319.736 293.069 318.566C292.135 318.419 291.426 318.493 290.504 318.685C288.567 320.152 286.049 326.56 284.83 328.928C283.248 331.643 282.052 334.552 280.499 337.285C283.848 337.29 287.321 337.475 290.645 337.075C290.557 338.929 290.58 340.705 290.743 342.554C286.514 342.335 280.486 343.235 276.569 342.117C275.565 341.83 274.94 341.21 274.462 340.289C274.074 339.54 273.981 338.941 274.246 338.138C275.849 333.282 279.383 327.937 281.765 323.391C283.132 320.782 284.373 317.537 286.107 315.187C286.805 314.241 287.733 313.788 288.758 313.283Z"/>
	<path fill="#0C5163" d="M298.877 269.449C301.648 269.271 304.293 269.502 306.476 271.432C308.296 273.041 309.709 275.925 309.792 278.364C309.824 279.283 309.649 279.788 309.02 280.446C307.694 280.816 306.063 280.563 304.685 280.486C304.453 278.43 304.256 276.766 303.165 274.96C301.492 274.408 299.712 274.021 297.952 274.385C296.96 274.591 296.083 275.062 295.582 275.976C294.77 277.461 295.382 278.996 295.839 280.479C299.01 282.829 302.833 284.36 305.868 286.873C307.967 288.612 309.365 290.795 309.606 293.572C309.796 295.76 309.484 298.585 307.994 300.277C306.083 302.447 303.322 303.048 300.577 303.284C300.392 303.358 300.127 303.401 299.923 303.422C297.634 303.663 295.342 303.183 293.541 301.734C290.496 299.284 290.109 295.894 289.723 292.26C291.438 292.188 293.182 292.259 294.9 292.262C295.258 293.803 295.299 295.613 296.167 296.979C296.97 298.243 298.33 298.518 299.678 298.864C300.935 298.538 302.567 298.189 303.437 297.149C304.149 296.299 304.764 294.871 304.591 293.749C304.042 290.186 297.011 287.78 294.247 285.772C292.11 284.218 290.34 282.192 289.985 279.472C289.667 277.036 290.437 274.082 292.048 272.207C293.836 270.124 296.302 269.681 298.877 269.449Z"/>
	<path fill="#0C5163" d="M323.27 269.625C328.888 270.14 335.33 270.051 340.923 269.477C340.966 270.969 341.132 272.583 340.807 274.047C339.472 275.021 330.432 274.713 328.326 274.63C328.046 277.514 328.197 280.369 328.306 283.257C332.039 283.016 335.776 283.352 339.509 283.016C339.401 284.632 339.443 286.268 339.443 287.888C335.653 287.69 331.819 287.794 328.022 287.79L328.092 291.464Q328.234 295.023 328.315 298.584C332.231 297.899 336.865 298.241 340.852 298.32C340.996 299.869 340.955 301.463 340.982 303.021C335.037 302.963 329.015 302.799 323.08 303.132L323.037 280.252C323.033 277.258 322.505 272.428 323.27 269.625Z"/>
	<path fill="#0C5163" d="M154.755 269.761C156.007 269.704 157.349 269.561 158.596 269.642C159.386 269.693 159.702 269.881 160.229 270.442C160.349 271.721 160.425 273.222 159.705 274.342C156.949 275.095 150.457 274.764 147.492 274.537C147.033 277.392 147.149 280.39 147.264 283.27Q153.191 283.19 159.118 283.208C159.005 284.816 159.007 286.444 158.963 288.055C155.03 287.886 151.065 287.945 147.127 287.921L147.248 291.656C147.745 295.195 147.223 299.42 147.162 303.04C145.42 303.064 143.668 303.127 141.928 303.023C142.062 291.949 142.173 280.822 141.875 269.75C146.162 269.854 150.466 269.768 154.755 269.761Z"/>
	<path fill="#0C5163" d="M407.409 284.797C408.059 282.313 412.529 271.578 414.223 270.203C415.504 269.163 418.052 269.855 419.568 270.073C417.283 274.603 415.734 279.516 413.189 283.927C412.515 285.218 411.686 286.531 411.228 287.915C409.838 292.118 410.001 298.671 409.912 303.141C408.225 303.082 406.582 303.141 404.898 303.256C404.899 298.792 405.224 293.891 403.957 289.579C403.027 286.418 395.374 271.681 395.888 270.03L396.752 269.76C397.624 269.696 398.757 269.527 399.603 269.748C401.882 270.346 406.051 282.087 407.409 284.797Z"/>
	<path fill="#0C5163" d="M372.688 269.753C374.249 269.71 376.457 269.326 377.778 270.312C377.812 279.598 378.095 288.982 377.878 298.256C381.663 298.33 385.456 298.288 389.242 298.297C389.221 299.835 389.295 301.362 389.371 302.898C386.389 303.491 376.284 303.009 372.545 303.104C372.761 299.082 371.311 271.495 372.688 269.753Z"/>
	<path fill="#3180AF" d="M403.005 321.296C404.27 321.301 405.656 321.255 406.862 321.696C407.43 321.903 407.914 322.182 408.122 322.782C408.445 323.709 408.722 335.648 408.564 337.055C408.46 337.982 408.203 338.902 407.726 339.709C407.06 340.836 405.937 341.519 404.691 341.842C403.209 342.227 399.462 342.41 398.222 341.465C397.234 340.712 397.288 339.63 397.194 338.505C398.351 338.334 402.018 339.336 404.141 339.274C404.632 338.245 405.171 337.232 405.687 336.214C404.3 336.534 402.897 336.799 401.503 337.085C400.591 336.654 399.696 336.187 398.796 335.731C398.373 334.872 398.028 333.979 397.823 333.041C397.185 330.117 397.223 326.179 398.928 323.615C400.006 321.993 401.21 321.646 403.005 321.296ZM403.432 334.352C404.044 334.118 404.697 334.048 404.993 333.411C405.851 331.564 405.563 326.11 405.006 324.106C404.317 323.718 403.552 323.816 402.777 323.968C401.455 324.704 401.103 325.409 400.703 326.838C400.161 328.771 400.031 331.389 401.136 333.156C401.649 333.976 402.551 334.155 403.432 334.352Z"/>
	<path fill="#0C5163" d="M173.309 269.645L178.432 269.576C178.651 273.981 179.247 300.44 178.239 303.036C176.601 303.108 174.951 303.088 173.311 303.104Q173.021 290.559 173.177 278.012C173.21 275.319 172.891 272.281 173.309 269.645Z"/>
	<path fill="#0C5163" d="M271.619 269.665L276.491 269.538C276.688 273.388 277.074 300.677 276.319 303.057C274.661 303.097 273 303.084 271.342 303.092C271.228 298.967 270.762 271.887 271.619 269.665Z"/>
	<path fill="#0C5163" d="M301.412 313.306L306.808 313.254C306.551 323.008 306.826 332.789 306.707 342.548C305.04 342.421 303.359 342.512 301.689 342.561C301.587 333.369 302.191 322.216 301.412 313.306Z"/>
	<path fill="#77D7EC" d="M194.721 319.285C195.784 319.296 196.454 319.218 197.358 319.81C198.307 321.759 202.453 335.965 201.995 337.379C201.39 337.862 201.411 337.969 200.604 337.892C199.086 336.761 199.193 334.935 198.13 333.603L197.556 333.704C196.054 333.751 194.53 333.649 193.027 333.601C192.731 334.934 192.584 336.475 191.532 337.426C190.708 337.604 190.384 337.748 189.567 337.49C189.544 337.302 189.529 337.241 189.548 337.028C189.784 334.443 192.829 323.187 193.805 320.554C193.997 320.037 194.325 319.655 194.721 319.285Z"/>
	<path fill="#77D7EC" d="M212.566 319.31C213.148 319.293 213.861 319.221 214.422 319.384C217.223 320.198 218.616 328.188 219.731 330.674L219.895 331.036C220.248 327.387 219.958 323.737 220.049 320.082C220.462 319.527 220.536 319.525 221.201 319.305C221.928 319.462 222.01 319.43 222.485 319.987C222.654 323.259 223.097 335.224 222.497 338.057C222.28 337.999 222.062 337.944 221.849 337.872C218.68 336.803 216.759 328.02 215.192 325.024L215.019 324.697C215.059 326.163 215.059 335.794 214.801 336.536C214.562 337.222 214.2 337.388 213.582 337.684C213.179 337.553 212.987 337.59 212.748 337.212C211.961 335.973 212.031 321.195 212.566 319.31Z"/>
	<path fill="#77D7EC" d="M169.46 319.249C169.966 319.277 170.841 319.263 171.307 319.472C174.099 320.722 174.482 327.436 176.346 329.421C177.293 328.349 176.531 321.737 176.637 319.845C176.856 319.669 176.949 319.571 177.234 319.46C177.877 319.211 178.385 319.347 178.949 319.644C179.453 321.388 179.094 324.01 179.168 325.909C179.256 328.152 180.154 335.915 178.61 337.579C177.803 337.595 177.673 337.487 176.998 337.099C174.808 333.015 173.406 328.474 171.331 324.3C171.387 327.04 172.347 335.488 171.013 337.365C170.392 337.691 170.332 337.824 169.626 337.657C169.448 337.463 169.395 337.435 169.286 337.152C168.888 336.121 168.83 321.788 169.087 320.237C169.153 319.844 169.28 319.6 169.46 319.249Z"/>
	<path fill="#3180AF" d="M335.443 321.258C336.323 321.291 337.084 321.424 337.868 321.849C339.542 322.755 340.719 324.941 341.183 326.738C341.423 327.67 341.363 328.196 340.874 329.013C339.335 330.279 335.112 329.675 333.151 329.642C333.259 330.802 333.324 332.959 334.196 333.789C335.828 335.344 337.887 332.404 339.415 332.043C339.832 331.944 340.658 332.062 341.109 332.069C341.149 333 341.013 333.943 340.529 334.758C339.878 335.855 338.678 336.493 337.455 336.73C335.235 337.161 333.306 336.585 331.493 335.322C330.901 334.315 330.459 333.385 330.238 332.229C329.711 329.473 329.475 325.983 331.2 323.586C332.274 322.093 333.713 321.569 335.443 321.258Z"/>
	<path fill="#77D7EC" fill-opacity="0.98823529" d="M255.226 319.27C257.619 319.413 263.219 318.795 264.967 320.114C265.251 320.817 265.291 320.772 265.006 321.466C263.402 322.601 260.306 322.093 258.394 322.001C258.506 323.516 258.469 325.053 258.476 326.571C260.032 326.425 262.579 326.174 263.981 326.941C264.483 327.215 264.496 327.349 264.656 327.86C263.786 330.742 260.166 328.431 258.421 329.792L258.471 330.679L258.482 335.107C260.153 334.945 262.371 334.719 263.991 335.148C264.738 335.345 265.069 335.704 265.419 336.361L265.166 336.759C262.735 337.953 258.133 337.482 255.37 337.529C254.931 331.533 255.275 325.299 255.226 319.27Z"/>
	<defs>
		<linearGradient id="gradient_0" gradientUnits="userSpaceOnUse" x1="388.15479" y1="336.78134" x2="391.60928" y2="321.93423">
			<stop offset="0" stop-color="#229ABD"/>
			<stop offset="1" stop-color="#3A5B96"/>
		</linearGradient>
	</defs>
	<path fill="url(#gradient_0)" d="M388.486 321.301Q389.261 321.28 390.036 321.298C391.431 321.331 392.91 321.669 393.862 322.777C394.46 323.473 394.771 324.425 394.907 325.318C395.076 326.427 395.24 334.438 395.056 335.439C394.918 336.188 394.699 336.398 394.078 336.788C393.657 336.783 393.199 336.804 392.821 336.597C390.682 335.423 392.458 327.82 391.753 325.401C391.479 324.462 391.214 324.342 390.418 323.867C389.593 323.847 388.857 323.87 388.047 324.035C386.114 326.358 389.319 333.36 387.213 336.551C386.467 336.961 386.303 336.972 385.492 336.969C383.792 335.496 384.774 325.371 384.26 322.419L388.486 321.301Z"/>
	<path fill="#3180AF" d="M370.513 321.269C371.98 321.356 373.733 321.678 374.822 322.759C376.618 324.542 376.207 331.765 376.064 334.225C376.014 335.09 375.98 336.221 375.303 336.829C374.479 336.885 374.112 336.87 373.411 336.417C371.89 334.116 373.431 328.556 372.798 325.543C372.585 324.526 372.171 324.216 371.364 323.678C370.487 323.757 369.711 323.847 368.872 324.12C367.623 325.782 369.237 332.599 368.741 335.097C368.562 335.997 368.204 336.346 367.465 336.843C366.817 336.889 366.523 337.044 366.003 336.629C364.794 333.613 365.473 326.106 365.387 322.441C367.091 321.971 368.772 321.575 370.513 321.269Z"/>
	<path fill="#77D7EC" d="M237.803 319.324Q238.542 319.282 239.279 319.35C240.925 319.491 242.555 320.196 243.563 321.55C244.361 322.622 244.756 324.243 244.562 325.556C244.194 325.987 243.762 326.071 243.241 326.227C241.302 325.613 241.858 323.936 240.759 322.639C240.334 322.139 239.362 321.756 238.717 321.756C238.198 321.756 237.75 321.938 237.398 322.328C236.168 323.69 236.237 326.236 236.255 327.958C236.275 329.844 236.046 333.201 237.595 334.567C238.063 334.98 238.644 335.146 239.262 335.09C240.321 334.992 240.69 334.284 241.266 333.511C241.575 332.209 241.975 331.545 243.045 330.736C243.632 330.729 243.616 330.828 244.05 331.239C244.47 332.458 244.415 333.576 243.926 334.774C243.453 335.934 242.587 336.917 241.41 337.384C239.882 337.991 237.739 337.751 236.28 337.049C235.071 336.467 234.3 335.208 233.881 333.979C232.768 330.719 232.815 325.213 234.358 322.078C235.193 320.383 236.109 319.907 237.803 319.324Z"/>
	<defs>
		<linearGradient id="gradient_1" gradientUnits="userSpaceOnUse" x1="348.39615" y1="328.487" x2="348.83444" y2="336.17371">
			<stop offset="0" stop-color="#327DB2"/>
			<stop offset="1" stop-color="#2E9BC0"/>
		</linearGradient>
	</defs>
	<path fill="url(#gradient_1)" d="M351.198 327.707C351.692 327.561 352.903 327.116 353.39 327.337C353.509 327.391 353.615 327.469 353.727 327.535L353.993 328.657C354.088 331.093 354.212 333.525 354.12 335.963C351.607 336.711 348.871 337.353 346.287 336.508C344.956 336.072 343.723 335.231 343.173 333.896C342.839 333.084 342.85 332.243 343.175 331.434C345 326.897 348.223 329.17 350.882 327.873C350.989 327.821 351.093 327.762 351.198 327.707Z"/>
	<path fill="#77D7EC" d="M134.797 319.354C137.334 319.465 142.72 318.922 144.726 319.923L144.872 320.381C144.722 320.83 144.693 321.151 144.34 321.486C143.08 322.679 139.08 322.094 137.326 322.039C137.495 323.584 137.561 325.063 137.527 326.617C138.957 326.485 140.98 326.176 142.369 326.546C143.196 326.767 143.653 327.145 144.054 327.882C143.896 328.644 143.877 328.602 143.244 329.066C141.248 329.284 139.345 329.409 137.336 329.338Q137.407 329.826 137.456 330.316C137.619 331.932 138.051 336.235 137.074 337.401C136.264 337.568 136.095 337.596 135.269 337.337C134.474 336.192 134.567 321.621 134.797 319.354Z"/>
	<path fill="#3180AF" d="M319.549 315.807L320.554 316.173C322.004 317.942 321.643 330.771 321.611 333.692C323.618 333.857 325.866 333.449 327.803 333.9C328.506 334.064 328.669 334.301 328.996 334.908C328.958 335.651 328.845 336.005 328.494 336.661C325.151 336.612 321.8 336.66 318.456 336.684L318.443 324.345C318.443 322.046 317.891 317.467 319.549 315.807Z"/>
	<path fill="#3180AF" d="M359.793 321.536C360.229 321.455 360.077 321.474 360.53 321.429C361.492 321.333 362.359 321.256 363.138 321.932C363.608 322.34 363.63 322.417 363.677 323C363.503 323.231 363.403 323.391 363.159 323.574C362.342 324.182 360.734 323.873 359.77 323.803Q359.747 329.708 359.955 335.609C359.873 335.97 359.71 336.234 359.535 336.558C359.256 336.655 358.946 336.782 358.647 336.813C357.874 336.892 357.541 336.761 356.92 336.334C356.35 335.067 356.811 324.677 356.736 322.371C357.739 322.047 358.774 321.805 359.793 321.536Z"/>
	<path fill="#77D7EC" d="M155.584 319.227C156.422 319.246 157.101 319.23 157.864 319.606C158.526 321.349 158.049 325.249 158.049 327.189C158.048 328.883 158.361 336.366 157.838 337.305C157.725 337.508 157.362 337.781 157.187 337.956C156.5 337.763 155.957 337.645 155.425 337.134C154.907 334.351 154.89 323.554 155.113 320.411C155.147 319.931 155.332 319.623 155.584 319.227Z"/>
	<path fill="#3180AF" d="M381.081 321.386L381.306 321.476C382.092 322.947 382.367 334.191 381.858 335.985C381.69 336.578 381.457 336.635 380.963 336.945C380.317 336.87 379.772 336.766 379.158 336.547C379.03 336.356 378.972 336.297 378.908 336.046C378.746 335.41 378.823 321.835 378.854 321.783L381.081 321.386Z"/>
	<path fill="#385894" d="M351.198 327.707C351.013 326.343 350.927 324.999 349.914 323.971C349.236 323.793 348.917 323.789 348.3 324.175C347.112 324.918 346.362 326.006 344.962 326.417C344.299 326.308 344.264 326.3 343.792 325.824C343.769 324.658 344.315 323.548 345.129 322.72C346.234 321.595 347.913 321 349.478 321.073C350.725 321.131 351.919 321.655 352.748 322.599C354.311 324.378 354.027 326.469 353.993 328.657L353.727 327.535C353.615 327.469 353.509 327.391 353.39 327.337C352.903 327.116 351.692 327.561 351.198 327.707Z"/>
	<path fill="#0C5163" d="M354.842 297.558L358.918 297.386C359.032 298.825 359.55 301.617 358.75 302.885L357.916 303.025C356.434 303.024 354.948 302.945 353.467 302.892C353.639 301.573 353.298 299.769 353.66 298.571C353.859 297.911 354.288 297.829 354.842 297.558Z"/>
	<path fill="#385894" d="M380.023 316.223C380.639 316.234 380.963 316.235 381.516 316.546C381.795 317.108 382.02 317.596 381.957 318.237C381.875 319.063 381.662 319.495 381.049 320.016C380.715 320.002 380.373 319.995 380.042 319.95C379.418 319.866 378.991 319.668 378.637 319.119C378.328 318.64 378.21 318.026 378.436 317.49C378.773 316.692 379.299 316.55 380.023 316.223Z"/>
</svg>
