<svg width="500" height="400" viewBox="0 0 500 400" fill="none" xmlns="http://www.w3.org/2000/svg">
  <rect width="500" height="400" rx="20" fill="#F0F9FF"/>
  
  <!-- Background elements -->
  <circle cx="400" cy="70" r="40" fill="#DBEAFE" />
  <circle cx="100" cy="350" r="50" fill="#DBEAFE" />
  <path d="M450 200C450 255.228 405.228 300 350 300C294.772 300 250 255.228 250 200C250 144.772 294.772 100 350 100C405.228 100 450 144.772 450 200Z" fill="#BFDBFE" fill-opacity="0.5"/>
  
  <!-- Dashboard Mockup -->
  <rect x="70" y="70" width="300" height="260" rx="10" fill="white" stroke="#CBD5E1" stroke-width="2"/>
  
  <!-- Header -->
  <rect x="70" y="70" width="300" height="40" rx="10" fill="#3B82F6"/>
  <circle cx="90" cy="90" r="10" fill="white"/>
  <rect x="110" y="85" width="100" height="10" rx="5" fill="white" fill-opacity="0.7"/>
  <rect x="320" y="85" width="30" height="10" rx="5" fill="white" fill-opacity="0.7"/>
  
  <!-- Chart -->
  <rect x="90" y="130" width="260" height="100" rx="5" fill="#EFF6FF"/>
  <path d="M90 180L120 170L150 190L180 150L210 180L240 160L270 170L300 150L330 140L350 145" stroke="#3B82F6" stroke-width="3" stroke-linecap="round"/>
  <circle cx="150" cy="190" r="5" fill="#3B82F6"/>
  <circle cx="210" cy="180" r="5" fill="#3B82F6"/>
  <circle cx="270" cy="170" r="5" fill="#3B82F6"/>
  <circle cx="330" cy="140" r="5" fill="#3B82F6"/>

  <!-- Progress Cards -->
  <rect x="90" y="250" width="120" height="60" rx="5" fill="#EFF6FF"/>
  <rect x="100" y="260" width="80" height="10" rx="2" fill="#94A3B8"/>
  <rect x="100" y="280" width="60" height="20" rx="2" fill="#3B82F6"/>
  
  <rect x="230" y="250" width="120" height="60" rx="5" fill="#EFF6FF"/>
  <rect x="240" y="260" width="80" height="10" rx="2" fill="#94A3B8"/>
  <rect x="240" y="280" width="90" height="20" rx="2" fill="#3B82F6"/>
  
  <!-- AI Robot -->
  <circle cx="420" cy="250" r="40" fill="#DBEAFE"/>
  <circle cx="420" cy="230" r="15" fill="#3B82F6"/>
  <rect x="400" y="250" width="40" height="30" rx="5" fill="#3B82F6"/>
  <rect x="405" y="285" width="30" height="5" rx="2.5" fill="#3B82F6"/>
  <rect x="410" y="295" width="20" height="5" rx="2.5" fill="#3B82F6"/>
  <circle cx="415" cy="225" r="3" fill="white"/>
  <circle cx="425" cy="225" r="3" fill="white"/>
  
  <!-- Connection Lines -->
  <path d="M370 250L380 250" stroke="#3B82F6" stroke-width="2" stroke-dasharray="2 2"/>
  <path d="M355 230C355 230 370 230 375 230" stroke="#3B82F6" stroke-width="2" stroke-dasharray="2 2"/>
  <path d="M355 270C355 270 370 270 375 270" stroke="#3B82F6" stroke-width="2" stroke-dasharray="2 2"/>
  
  <!-- Money Icons -->
  <circle cx="50" cy="150" r="20" fill="#BFDBFE"/>
  <path d="M50 145V155M45 150H55" stroke="#3B82F6" stroke-width="2" stroke-linecap="round"/>
  
  <circle cx="450" cy="350" r="25" fill="#BFDBFE"/>
  <path d="M450 342V358M445 350H455" stroke="#3B82F6" stroke-width="2" stroke-linecap="round"/>
  
  <circle cx="400" cy="150" r="15" fill="#BFDBFE"/>
  <path d="M400 145V155M395 150H405" stroke="#3B82F6" stroke-width="2" stroke-linecap="round"/>
</svg> 